<svg xmlns="http://www.w3.org/2000/svg" viewBox="0 0 1535.31 661.75"><defs><style>.cls-1{fill:#ffbc00;}</style></defs><g id="Layer_2" data-name="Layer 2"><path class="cls-1" d="M511.5,18.43,432.37,322H342.86L294.43,122.22,246.76,312.07c-11.44-14.49-26.3-26.32-44.37-35.29-18.33-9.07-39.52-14.45-63.16-16L77.78,18.43h79.14l43.67,221,54-221h81.3l51.89,221,44.1-221Z"/><path class="cls-1" d="M778.67,181V322H705.16V191q0-24.21-12.54-37.62T658.89,140q-21.2,0-33.73,13.4T612.62,191V322H538.68v-246A74,74,0,0,1,612.62,2V113.13q11.25-16,30.71-25.51T687,78.11q41.5,0,66.59,27.46T778.67,181Z"/><path class="cls-1" d="M1297.8,73.94V320a73.93,73.93,0,0,1-73.94-73.94V0a73.93,73.93,0,0,1,73.94,73.94Z"/><path class="cls-1" d="M1535.31,249.94a63.54,63.54,0,0,1-11.89,37.84q-11.91,16.65-34.16,26.16t-51.68,9.51q-31.56,0-56.21-10.81T1342.45,283a77.9,77.9,0,0,1-16-42.16h73.08a28.1,28.1,0,0,0,11.67,20.32q10.38,7.79,25.52,7.78,13.83,0,21.4-5.4t7.57-14.05q0-10.38-10.81-15.35t-35-11q-25.93-6-43.24-12.76a74.6,74.6,0,0,1-29.84-21.18q-12.54-14.49-12.53-39.14a66.42,66.42,0,0,1,11.45-37.83q11.46-17.09,33.73-27t53-10q45.4,0,71.57,22.49t30,59.67h-68.32q-1.74-12.53-11-19.89t-24.43-7.35q-13,0-19.89,5a15.9,15.9,0,0,0-6.92,13.63q0,10.37,11,15.56t34.37,10.38q26.82,6.92,43.68,13.62a75.46,75.46,0,0,1,29.62,21.62Q1534.87,224.86,1535.31,249.94Z"/><path class="cls-1" d="M487.6,416.14a111.72,111.72,0,0,0-45-43.46q-28.54-15.12-64-15.13t-64,15.13a111.17,111.17,0,0,0-41.36,37.62c-1.25,1.9-2.45,3.84-3.61,5.84a121.9,121.9,0,0,0-15.49,48.31,153,153,0,0,0-.94,17.2q0,37.62,16.21,65.73A110.88,110.88,0,0,0,314,590.62q28.32,15.15,63.78,15.14T442,590.62a112.57,112.57,0,0,0,45.4-43.45Q504,518.85,504,481.65T487.6,416.14ZM413.87,526.19Q399,541.76,377.76,541.76t-35.24-15.57q-14.06-15.57-14-44.54,0-29.4,14.27-44.75t35.89-15.35a46.84,46.84,0,0,1,35.67,15.56q14.49,15.57,14.49,44.54T413.87,526.19Z"/><path class="cls-1" d="M778.64,361V602.3H704.7V569.43q-11.25,16-30.49,25.73t-42.59,9.73q-27.68,0-48.86-12.32T549.9,556.89Q538.22,533.55,538.22,502V361h73.51V492q0,24.23,12.54,37.62T658,543.06q21.62,0,34.16-13.41T704.7,492V361Z"/><path class="cls-1" d="M976.31,599.05v62.7H938.69q-40.22,0-62.7-19.67T853.5,577.86v-96H824.1v-61.4h29.4V361.66h74v58.81h48.43v61.4H927.45v96.86q0,10.82,5.19,15.56t17.29,4.76Z"/><path class="cls-1" d="M168.21,482.08q33.3-9.93,50.38-33.72t17.08-54.06q0-26.81-12.54-48.64A81.08,81.08,0,0,0,202.45,322a98.92,98.92,0,0,0-17.16-10.71,119.09,119.09,0,0,0-36-10.81,173.81,173.81,0,0,0-25.2-1.73H0V602.3H73.94V487.71H91.67L154.8,602.3h83.46Zm-18-56.64q-10.15,10-30.48,9.94H73.94V360.15h45.84q20.33,0,30.48,9.94t10.17,27.24Q160.43,415.5,150.26,425.44Z"/><path class="cls-1" d="M977.41,192.91q0-20.9-8.83-36.57a60.79,60.79,0,0,0-24.5-24.13q-15.68-8.45-35.83-8.46-20.65,0-36.57,8.71a61.14,61.14,0,0,0-24.75,24.88q-8.83,16.17-8.83,37.81T847.05,233a62,62,0,0,0,24.88,24.88q15.92,8.7,36.32,8.7a73,73,0,0,0,30.6-6.22,62.88,62.88,0,0,0,22.77-17.16,62.18,62.18,0,0,0,12.56-24.63H928.9Q922.68,232,906.76,232a25.47,25.47,0,0,1-18-6.84q-7.34-6.84-8.33-19.78h96.28A108,108,0,0,0,977.41,192.91Zm-96.77-11.19q1.74-11.44,9.08-17.66t18-6.22q11.19,0,18.65,6.47t7.47,17.41Z"/><path class="cls-1" d="M1167.41,231.91q0-20.9-8.83-36.57a60.79,60.79,0,0,0-24.5-24.13q-15.67-8.44-35.83-8.46-20.65,0-36.57,8.71a61.14,61.14,0,0,0-24.75,24.88q-8.84,16.17-8.83,37.81t9,37.82a62,62,0,0,0,24.88,24.88q15.91,8.7,36.32,8.7a73,73,0,0,0,30.6-6.22,62.88,62.88,0,0,0,22.77-17.16,62.18,62.18,0,0,0,12.56-24.63H1118.9Q1112.68,271,1096.76,271a25.47,25.47,0,0,1-18-6.84q-7.34-6.84-8.33-19.78h96.28A108,108,0,0,0,1167.41,231.91Zm-96.77-11.19q1.74-11.44,9.08-17.66t18-6.22q11.19,0,18.65,6.47t7.47,17.41Z"/><path class="cls-1" d="M1209,214.24A15.7,15.7,0,0,1,1193.31,230h0a15.68,15.68,0,0,1-15.68-15.63,69.19,69.19,0,0,0-5.87-27.86,74.38,74.38,0,0,0-17-23.89,81,81,0,0,0-25.82-16.19,85.09,85.09,0,0,0-30.64-5.69h-.09a85,85,0,0,0-30.63,5.69,80.77,80.77,0,0,0-25.84,16.21,74.1,74.1,0,0,0-17,23.87,69.34,69.34,0,0,0-5.87,27.85,14.44,14.44,0,0,1-.18,2.29,99.92,99.92,0,0,1-8.52,39.94,105.85,105.85,0,0,1-24.26,34.09,112.57,112.57,0,0,1-35.95,22.58,116.32,116.32,0,0,1-42,7.82h-.09a116.32,116.32,0,0,1-42-7.82,112.41,112.41,0,0,1-35.93-22.57,105.75,105.75,0,0,1-24.28-34.1,100.31,100.31,0,0,1-8.53-40.4,15.69,15.69,0,0,1,15.63-15.74h.05a15.68,15.68,0,0,1,15.68,15.64,69.18,69.18,0,0,0,5.87,27.85,74.27,74.27,0,0,0,17,23.89A81,81,0,0,0,877.12,284a85.31,85.31,0,0,0,30.64,5.7h.09a85.31,85.31,0,0,0,30.64-5.7,80.67,80.67,0,0,0,25.83-16.21,74.1,74.1,0,0,0,17-23.87,69.18,69.18,0,0,0,5.87-27.85,14.57,14.57,0,0,1,.18-2.3,100,100,0,0,1,8.52-39.93,105.73,105.73,0,0,1,24.27-34.09,112.41,112.41,0,0,1,35.94-22.58,116.32,116.32,0,0,1,42-7.82h.09a116.32,116.32,0,0,1,42,7.82,112.56,112.56,0,0,1,35.94,22.57,105.65,105.65,0,0,1,24.27,34.11A100.24,100.24,0,0,1,1209,214.24Z"/><path class="cls-1" d="M977.41,192.91q0-20.9-8.83-36.57a60.79,60.79,0,0,0-24.5-24.13q-15.68-8.45-35.83-8.46-20.65,0-36.57,8.71a61.14,61.14,0,0,0-24.75,24.88q-8.83,16.17-8.83,37.81T847.05,233a62,62,0,0,0,24.88,24.88q15.92,8.7,36.32,8.7a73,73,0,0,0,30.6-6.22,62.88,62.88,0,0,0,22.77-17.16,62.18,62.18,0,0,0,12.56-24.63H928.9Q922.68,232,906.76,232a25.47,25.47,0,0,1-18-6.84q-7.34-6.84-8.33-19.78h96.28A108,108,0,0,0,977.41,192.91Zm-96.77-11.19q1.74-11.44,9.08-17.66t18-6.22q11.19,0,18.65,6.47t7.47,17.41Z"/><path class="cls-1" d="M1167.41,231.91q0-20.9-8.83-36.57a60.79,60.79,0,0,0-24.5-24.13q-15.67-8.44-35.83-8.46-20.65,0-36.57,8.71a61.14,61.14,0,0,0-24.75,24.88q-8.84,16.17-8.83,37.81t9,37.82a62,62,0,0,0,24.88,24.88q15.91,8.7,36.32,8.7a73,73,0,0,0,30.6-6.22,62.88,62.88,0,0,0,22.77-17.16,62.18,62.18,0,0,0,12.56-24.63H1118.9Q1112.68,271,1096.76,271a25.47,25.47,0,0,1-18-6.84q-7.34-6.84-8.33-19.78h96.28A108,108,0,0,0,1167.41,231.91Zm-96.77-11.19q1.74-11.44,9.08-17.66t18-6.22q11.19,0,18.65,6.47t7.47,17.41Z"/><path class="cls-1" d="M1209,214.24A15.7,15.7,0,0,1,1193.31,230h0a15.68,15.68,0,0,1-15.68-15.63,69.19,69.19,0,0,0-5.87-27.86,74.38,74.38,0,0,0-17-23.89,81,81,0,0,0-25.82-16.19,85.09,85.09,0,0,0-30.64-5.69h-.09a85,85,0,0,0-30.63,5.69,80.77,80.77,0,0,0-25.84,16.21,74.1,74.1,0,0,0-17,23.87,69.34,69.34,0,0,0-5.87,27.85,14.44,14.44,0,0,1-.18,2.29,99.92,99.92,0,0,1-8.52,39.94,105.85,105.85,0,0,1-24.26,34.09,112.57,112.57,0,0,1-35.95,22.58,116.32,116.32,0,0,1-42,7.82h-.09a116.32,116.32,0,0,1-42-7.82,112.41,112.41,0,0,1-35.93-22.57,105.75,105.75,0,0,1-24.28-34.1,100.31,100.31,0,0,1-8.53-40.4,15.69,15.69,0,0,1,15.63-15.74h.05a15.68,15.68,0,0,1,15.68,15.64,69.18,69.18,0,0,0,5.87,27.85,74.27,74.27,0,0,0,17,23.89A81,81,0,0,0,877.12,284a85.31,85.31,0,0,0,30.64,5.7h.09a85.31,85.31,0,0,0,30.64-5.7,80.67,80.67,0,0,0,25.83-16.21,74.1,74.1,0,0,0,17-23.87,69.18,69.18,0,0,0,5.87-27.85,14.57,14.57,0,0,1,.18-2.3,100,100,0,0,1,8.52-39.93,105.73,105.73,0,0,1,24.27-34.09,112.41,112.41,0,0,1,35.94-22.58,116.32,116.32,0,0,1,42-7.82h.09a116.32,116.32,0,0,1,42,7.82,112.56,112.56,0,0,1,35.94,22.57,105.65,105.65,0,0,1,24.27,34.11A100.24,100.24,0,0,1,1209,214.24Z"/><path class="cls-1" d="M977.41,192.91q0-20.9-8.83-36.57a60.79,60.79,0,0,0-24.5-24.13q-15.68-8.45-35.83-8.46-20.65,0-36.57,8.71a61.14,61.14,0,0,0-24.75,24.88q-8.83,16.17-8.83,37.81T847.05,233a62,62,0,0,0,24.88,24.88q15.92,8.7,36.32,8.7a73,73,0,0,0,30.6-6.22,62.88,62.88,0,0,0,22.77-17.16,62.18,62.18,0,0,0,12.56-24.63H928.9Q922.68,232,906.76,232a25.47,25.47,0,0,1-18-6.84q-7.34-6.84-8.33-19.78h96.28A108,108,0,0,0,977.41,192.91Zm-96.77-11.19q1.74-11.44,9.08-17.66t18-6.22q11.19,0,18.65,6.47t7.47,17.41Z"/><path class="cls-1" d="M1167.41,231.91q0-20.9-8.83-36.57a60.79,60.79,0,0,0-24.5-24.13q-15.67-8.44-35.83-8.46-20.65,0-36.57,8.71a61.14,61.14,0,0,0-24.75,24.88q-8.84,16.17-8.83,37.81t9,37.82a62,62,0,0,0,24.88,24.88q15.91,8.7,36.32,8.7a73,73,0,0,0,30.6-6.22,62.88,62.88,0,0,0,22.77-17.16,62.18,62.18,0,0,0,12.56-24.63H1118.9Q1112.68,271,1096.76,271a25.47,25.47,0,0,1-18-6.84q-7.34-6.84-8.33-19.78h96.28A108,108,0,0,0,1167.41,231.91Zm-96.77-11.19q1.74-11.44,9.08-17.66t18-6.22q11.19,0,18.65,6.47t7.47,17.41Z"/><path class="cls-1" d="M1209,214.24A15.7,15.7,0,0,1,1193.31,230h0a15.68,15.68,0,0,1-15.68-15.63,69.19,69.19,0,0,0-5.87-27.86,74.38,74.38,0,0,0-17-23.89,81,81,0,0,0-25.82-16.19,85.09,85.09,0,0,0-30.64-5.69h-.09a85,85,0,0,0-30.63,5.69,80.77,80.77,0,0,0-25.84,16.21,74.1,74.1,0,0,0-17,23.87,69.34,69.34,0,0,0-5.87,27.85,14.44,14.44,0,0,1-.18,2.29,99.92,99.92,0,0,1-8.52,39.94,105.85,105.85,0,0,1-24.26,34.09,112.57,112.57,0,0,1-35.95,22.58,116.32,116.32,0,0,1-42,7.82h-.09a116.32,116.32,0,0,1-42-7.82,112.41,112.41,0,0,1-35.93-22.57,105.75,105.75,0,0,1-24.28-34.1,100.31,100.31,0,0,1-8.53-40.4,15.69,15.69,0,0,1,15.63-15.74h.05a15.68,15.68,0,0,1,15.68,15.64,69.18,69.18,0,0,0,5.87,27.85,74.27,74.27,0,0,0,17,23.89A81,81,0,0,0,877.12,284a85.31,85.31,0,0,0,30.64,5.7h.09a85.31,85.31,0,0,0,30.64-5.7,80.67,80.67,0,0,0,25.83-16.21,74.1,74.1,0,0,0,17-23.87,69.18,69.18,0,0,0,5.87-27.85,14.57,14.57,0,0,1,.18-2.3,100,100,0,0,1,8.52-39.93,105.73,105.73,0,0,1,24.27-34.09,112.41,112.41,0,0,1,35.94-22.58,116.32,116.32,0,0,1,42-7.82h.09a116.32,116.32,0,0,1,42,7.82,112.56,112.56,0,0,1,35.94,22.57,105.65,105.65,0,0,1,24.27,34.11A100.24,100.24,0,0,1,1209,214.24Z"/><path class="cls-1" d="M1120.66,445.45v23l82.7-39.65-82.7-39.65v23.26a69,69,0,1,0,0,138h117.13a123.86,123.86,0,1,1,15-33H1120.66a36,36,0,1,1,0-72Z"/><path class="cls-1" d="M511.5,18.43,432.37,322H342.86L294.43,122.22,246.76,312.07c-11.44-14.49-26.3-26.32-44.37-35.29-18.33-9.07-39.52-14.45-63.16-16L77.78,18.43h79.14l43.67,221,54-221h81.3l51.89,221,44.1-221Z"/><path class="cls-1" d="M778.67,181V322H705.16V191q0-24.21-12.54-37.62T658.89,140q-21.2,0-33.73,13.4T612.62,191V322H538.68v-246A74,74,0,0,1,612.62,2V113.13q11.25-16,30.71-25.51T687,78.11q41.5,0,66.59,27.46T778.67,181Z"/><path class="cls-1" d="M1297.8,73.94V320a73.93,73.93,0,0,1-73.94-73.94V0a73.93,73.93,0,0,1,73.94,73.94Z"/><path class="cls-1" d="M1535.31,249.94a63.54,63.54,0,0,1-11.89,37.84q-11.91,16.65-34.16,26.16t-51.68,9.51q-31.56,0-56.21-10.81T1342.45,283a77.9,77.9,0,0,1-16-42.16h73.08a28.1,28.1,0,0,0,11.67,20.32q10.38,7.79,25.52,7.78,13.83,0,21.4-5.4t7.57-14.05q0-10.38-10.81-15.35t-35-11q-25.93-6-43.24-12.76a74.6,74.6,0,0,1-29.84-21.18q-12.54-14.49-12.53-39.14a66.42,66.42,0,0,1,11.45-37.83q11.46-17.09,33.73-27t53-10q45.4,0,71.57,22.49t30,59.67h-68.32q-1.74-12.53-11-19.89t-24.43-7.35q-13,0-19.89,5a15.9,15.9,0,0,0-6.92,13.63q0,10.37,11,15.56t34.37,10.38q26.82,6.92,43.68,13.62a75.46,75.46,0,0,1,29.62,21.62Q1534.87,224.86,1535.31,249.94Z"/><path class="cls-1" d="M487.6,416.14a111.72,111.72,0,0,0-45-43.46q-28.54-15.12-64-15.13t-64,15.13a111.17,111.17,0,0,0-41.36,37.62c-1.25,1.9-2.45,3.84-3.61,5.84a121.9,121.9,0,0,0-15.49,48.31,153,153,0,0,0-.94,17.2q0,37.62,16.21,65.73A110.88,110.88,0,0,0,314,590.62q28.32,15.15,63.78,15.14T442,590.62a112.57,112.57,0,0,0,45.4-43.45Q504,518.85,504,481.65T487.6,416.14ZM413.87,526.19Q399,541.76,377.76,541.76t-35.24-15.57q-14.06-15.57-14-44.54,0-29.4,14.27-44.75t35.89-15.35a46.84,46.84,0,0,1,35.67,15.56q14.49,15.57,14.49,44.54T413.87,526.19Z"/><path class="cls-1" d="M778.64,361V602.3H704.7V569.43q-11.25,16-30.49,25.73t-42.59,9.73q-27.68,0-48.86-12.32T549.9,556.89Q538.22,533.55,538.22,502V361h73.51V492q0,24.23,12.54,37.62T658,543.06q21.62,0,34.16-13.41T704.7,492V361Z"/><path class="cls-1" d="M976.31,599.05v62.7H938.69q-40.22,0-62.7-19.67T853.5,577.86v-96H824.1v-61.4h29.4V361.66h74v58.81h48.43v61.4H927.45v96.86q0,10.82,5.19,15.56t17.29,4.76Z"/><path class="cls-1" d="M168.21,482.08q33.3-9.93,50.38-33.72t17.08-54.06q0-26.81-12.54-48.64A81.08,81.08,0,0,0,202.45,322a98.92,98.92,0,0,0-17.16-10.71,119.09,119.09,0,0,0-36-10.81,173.81,173.81,0,0,0-25.2-1.73H0V602.3H73.94V487.71H91.67L154.8,602.3h83.46Zm-18-56.64q-10.15,10-30.48,9.94H73.94V360.15h45.84q20.33,0,30.48,9.94t10.17,27.24Q160.43,415.5,150.26,425.44Z"/><path class="cls-1" d="M977.41,192.91q0-20.9-8.83-36.57a60.79,60.79,0,0,0-24.5-24.13q-15.68-8.45-35.83-8.46-20.65,0-36.57,8.71a61.14,61.14,0,0,0-24.75,24.88q-8.83,16.17-8.83,37.81T847.05,233a62,62,0,0,0,24.88,24.88q15.92,8.7,36.32,8.7a73,73,0,0,0,30.6-6.22,62.88,62.88,0,0,0,22.77-17.16,62.18,62.18,0,0,0,12.56-24.63H928.9Q922.68,232,906.76,232a25.47,25.47,0,0,1-18-6.84q-7.34-6.84-8.33-19.78h96.28A108,108,0,0,0,977.41,192.91Zm-96.77-11.19q1.74-11.44,9.08-17.66t18-6.22q11.19,0,18.65,6.47t7.47,17.41Z"/><path class="cls-1" d="M1167.41,231.91q0-20.9-8.83-36.57a60.79,60.79,0,0,0-24.5-24.13q-15.67-8.44-35.83-8.46-20.65,0-36.57,8.71a61.14,61.14,0,0,0-24.75,24.88q-8.84,16.17-8.83,37.81t9,37.82a62,62,0,0,0,24.88,24.88q15.91,8.7,36.32,8.7a73,73,0,0,0,30.6-6.22,62.88,62.88,0,0,0,22.77-17.16,62.18,62.18,0,0,0,12.56-24.63H1118.9Q1112.68,271,1096.76,271a25.47,25.47,0,0,1-18-6.84q-7.34-6.84-8.33-19.78h96.28A108,108,0,0,0,1167.41,231.91Zm-96.77-11.19q1.74-11.44,9.08-17.66t18-6.22q11.19,0,18.65,6.47t7.47,17.41Z"/><path class="cls-1" d="M1209,214.24A15.7,15.7,0,0,1,1193.31,230h0a15.68,15.68,0,0,1-15.68-15.63,69.19,69.19,0,0,0-5.87-27.86,74.38,74.38,0,0,0-17-23.89,81,81,0,0,0-25.82-16.19,85.09,85.09,0,0,0-30.64-5.69h-.09a85,85,0,0,0-30.63,5.69,80.77,80.77,0,0,0-25.84,16.21,74.1,74.1,0,0,0-17,23.87,69.34,69.34,0,0,0-5.87,27.85,14.44,14.44,0,0,1-.18,2.29,99.92,99.92,0,0,1-8.52,39.94,105.85,105.85,0,0,1-24.26,34.09,112.57,112.57,0,0,1-35.95,22.58,116.32,116.32,0,0,1-42,7.82h-.09a116.32,116.32,0,0,1-42-7.82,112.41,112.41,0,0,1-35.93-22.57,105.75,105.75,0,0,1-24.28-34.1,100.31,100.31,0,0,1-8.53-40.4,15.69,15.69,0,0,1,15.63-15.74h.05a15.68,15.68,0,0,1,15.68,15.64,69.18,69.18,0,0,0,5.87,27.85,74.27,74.27,0,0,0,17,23.89A81,81,0,0,0,877.12,284a85.31,85.31,0,0,0,30.64,5.7h.09a85.31,85.31,0,0,0,30.64-5.7,80.67,80.67,0,0,0,25.83-16.21,74.1,74.1,0,0,0,17-23.87,69.18,69.18,0,0,0,5.87-27.85,14.57,14.57,0,0,1,.18-2.3,100,100,0,0,1,8.52-39.93,105.73,105.73,0,0,1,24.27-34.09,112.41,112.41,0,0,1,35.94-22.58,116.32,116.32,0,0,1,42-7.82h.09a116.32,116.32,0,0,1,42,7.82,112.56,112.56,0,0,1,35.94,22.57,105.65,105.65,0,0,1,24.27,34.11A100.24,100.24,0,0,1,1209,214.24Z"/><path class="cls-1" d="M977.41,192.91q0-20.9-8.83-36.57a60.79,60.79,0,0,0-24.5-24.13q-15.68-8.45-35.83-8.46-20.65,0-36.57,8.71a61.14,61.14,0,0,0-24.75,24.88q-8.83,16.17-8.83,37.81T847.05,233a62,62,0,0,0,24.88,24.88q15.92,8.7,36.32,8.7a73,73,0,0,0,30.6-6.22,62.88,62.88,0,0,0,22.77-17.16,62.18,62.18,0,0,0,12.56-24.63H928.9Q922.68,232,906.76,232a25.47,25.47,0,0,1-18-6.84q-7.34-6.84-8.33-19.78h96.28A108,108,0,0,0,977.41,192.91Zm-96.77-11.19q1.74-11.44,9.08-17.66t18-6.22q11.19,0,18.65,6.47t7.47,17.41Z"/><path class="cls-1" d="M1167.41,231.91q0-20.9-8.83-36.57a60.79,60.79,0,0,0-24.5-24.13q-15.67-8.44-35.83-8.46-20.65,0-36.57,8.71a61.14,61.14,0,0,0-24.75,24.88q-8.84,16.17-8.83,37.81t9,37.82a62,62,0,0,0,24.88,24.88q15.91,8.7,36.32,8.7a73,73,0,0,0,30.6-6.22,62.88,62.88,0,0,0,22.77-17.16,62.18,62.18,0,0,0,12.56-24.63H1118.9Q1112.68,271,1096.76,271a25.47,25.47,0,0,1-18-6.84q-7.34-6.84-8.33-19.78h96.28A108,108,0,0,0,1167.41,231.91Zm-96.77-11.19q1.74-11.44,9.08-17.66t18-6.22q11.19,0,18.65,6.47t7.47,17.41Z"/><path class="cls-1" d="M1209,214.24A15.7,15.7,0,0,1,1193.31,230h0a15.68,15.68,0,0,1-15.68-15.63,69.19,69.19,0,0,0-5.87-27.86,74.38,74.38,0,0,0-17-23.89,81,81,0,0,0-25.82-16.19,85.09,85.09,0,0,0-30.64-5.69h-.09a85,85,0,0,0-30.63,5.69,80.77,80.77,0,0,0-25.84,16.21,74.1,74.1,0,0,0-17,23.87,69.34,69.34,0,0,0-5.87,27.85,14.44,14.44,0,0,1-.18,2.29,99.92,99.92,0,0,1-8.52,39.94,105.85,105.85,0,0,1-24.26,34.09,112.57,112.57,0,0,1-35.95,22.58,116.32,116.32,0,0,1-42,7.82h-.09a116.32,116.32,0,0,1-42-7.82,112.41,112.41,0,0,1-35.93-22.57,105.75,105.75,0,0,1-24.28-34.1,100.31,100.31,0,0,1-8.53-40.4,15.69,15.69,0,0,1,15.63-15.74h.05a15.68,15.68,0,0,1,15.68,15.64,69.18,69.18,0,0,0,5.87,27.85,74.27,74.27,0,0,0,17,23.89A81,81,0,0,0,877.12,284a85.31,85.31,0,0,0,30.64,5.7h.09a85.31,85.31,0,0,0,30.64-5.7,80.67,80.67,0,0,0,25.83-16.21,74.1,74.1,0,0,0,17-23.87,69.18,69.18,0,0,0,5.87-27.85,14.57,14.57,0,0,1,.18-2.3,100,100,0,0,1,8.52-39.93,105.73,105.73,0,0,1,24.27-34.09,112.41,112.41,0,0,1,35.94-22.58,116.32,116.32,0,0,1,42-7.82h.09a116.32,116.32,0,0,1,42,7.82,112.56,112.56,0,0,1,35.94,22.57,105.65,105.65,0,0,1,24.27,34.11A100.24,100.24,0,0,1,1209,214.24Z"/><path class="cls-1" d="M1120.66,445.45v23l82.7-39.65-82.7-39.65v23.26a69,69,0,1,0,0,138h117.13a123.86,123.86,0,1,1,15-33H1120.66a36,36,0,1,1,0-72Z"/></g></svg>